<svg width="48" height="60" viewBox="0 0 48 60" fill="none" xmlns="http://www.w3.org/2000/svg">
<path d="M48 24.5455C48 43.6364 24 60 24 60C24 60 0 43.6364 0 24.5455C9.48488e-08 18.0356 2.52856 11.7924 7.02944 7.1892C11.5303 2.58603 17.6348 0 24 0C30.3652 0 36.4697 2.58603 40.9706 7.1892C45.4714 11.7924 48 18.0356 48 24.5455Z" fill="white"/>
<g clip-path="url(#clip0_100:27)">
<path d="M20.9231 32.7917V18.2083L29.3846 16.0208V8L14 13.8333V37.1667L29.3846 43V34.9792L20.9231 32.7917Z" fill="#A7CC4A"/>
<path d="M29.3846 21.8538L20.9231 18.208L29.3846 16.0205L34 18.208V32.7913L29.3846 34.9788L20.9231 32.7913L29.3846 29.1455V21.8538Z" fill="#1F2E3C"/>
</g>
<defs>
<clipPath id="clip0_100:27">
<rect width="20" height="35" fill="white" transform="translate(14 8)"/>
</clipPath>
</defs>
</svg>
